<?xml version="1.0" encoding="utf-8"?>
<!-- Generator: Adobe Illustrator 26.0.3, SVG Export Plug-In . SVG Version: 6.00 Build 0)  -->
<svg version="1.1" id="Layer_1" xmlns="http://www.w3.org/2000/svg" xmlns:xlink="http://www.w3.org/1999/xlink" x="0px" y="0px"
	 viewBox="0 0 170.2 129.4" style="enable-background:new 0 0 170.2 129.4;" xml:space="preserve">
<style type="text/css">
	.st0{fill:#FFFFFF;}
</style>
<rect x="-7.6" y="-8.1" width="184.8" height="145.2"/>
<path class="st0" d="M1.6,63.8c0-20,0.1-40-0.1-60C1.5,1,2-0.2,5.2,0c3.5,0.3,7,0,10.5,0.1C23.3,0.2,27.6,4,28,11.7
	c0.3,5.9,0.2,11.8,0.2,17.6c0,7,0,14,0,21c0,4-0.8,7.8-4.3,10.3c-1.5,1.1-0.9,1.7,0.2,2.5c3.1,2.4,4.1,5.8,4.1,9.6
	c0,17.4,0,34.7,0,52.1c0,2.5-0.5,3.6-3.3,3.5c-9-0.3-7.6,1.3-7.6-7.4c-0.1-15.6,0-31.2,0-46.9c0.1-1,0.1-2,0-3
	c-0.2-2-1.1-3.9-3.4-3.7s-1.5,2.3-1.5,3.6c0,17.7-0.1,35.5,0.1,53.2c0,3.2-0.6,4.3-4.1,4.1c-6.7-0.3-6.7-0.1-6.7-6.7L1.6,63.8z
	 M12.3,33.8c0,7,0,14,0,21c0,1.1-0.1,2.4,1.4,2.7c1.2,0.1,2.3-0.5,2.7-1.6c0.5-1,0.8-2.1,0.9-3.2c0-13.2,0-26.4,0-39.6
	c0-2-0.8-3.5-3-3.4c-2.5,0.1-2,2.2-2,3.7C12.2,20.1,12.2,27,12.3,33.8L12.3,33.8z"/>
<path class="st0" d="M59.1,113.1c0.2,4.1,0.4,8.2,0.7,12.3c0,0.6,0.3,1.6,0,1.8c-2.8,2.1-6,0.6-9,0.9c-2.1,0.2-1.8-1.6-1.8-2.9
	c-0.2-7.5-0.5-15-0.7-22.5c0-2,0.1-3.6-2.8-3.7s-3.2,1.6-3.2,3.8c-0.2,7.5-0.6,15-0.7,22.5c0,2.2-0.6,3-3,3
	c-9.2-0.3-7.5,1.2-7.1-7.8c0.7-13.8,1.2-27.7,1.9-41.5c1.3-25.2,2.6-50.4,3.8-75.5C37.4,1,38-0.1,40.7,0.1c3.4,0.2,6.7,0.2,10.1,0
	c2.1-0.1,2.8,0.6,2.9,2.7c0.7,15.2,1.4,30.4,2.2,45.6C56.9,70,58.1,91.5,59.1,113.1L59.1,113.1z M46.7,27.9h-1.3
	c-0.8,1.3-0.4,2.7-0.5,4c-0.3,6.2-0.5,12.5-0.7,18.7c-0.5,12.2-1,24.4-1.5,36.7c-0.1,2,1,2.6,2.8,2.6c2,0,2.4-1,2.3-2.9
	c-0.5-10.5-0.9-21-1.1-31.4C46.6,46.3,46.7,37.1,46.7,27.9z"/>
<path class="st0" d="M105.3,0.1c7.6,0,7.6,0,8,7.4c1.1,22.3,2.1,44.6,3.3,66.9c0.9,16.8,1.8,33.6,2.8,50.4c0.2,2.8-0.7,3.4-3.3,3.4
	c-7.2-0.1-7.3,0.1-7.7-7c-0.3-6.1-0.4-12.2-0.5-18.3c0-2.2,0-3.8-3.1-3.8c-3.3,0-2.9,2.1-3,3.9c-0.3,7.1-0.7,14.2-0.7,21.3
	c0,3.1-0.9,4.1-4,3.9c-6.6-0.2-6.5,0-6.2-6.2c1.1-21.8,2.1-43.6,3.2-65.4c0.9-17.8,1.9-35.6,2.7-53.4c0.1-2.5,0.9-3.3,3.3-3
	C101.9,0.2,103.6,0.2,105.3,0.1z M106,28.1l-1.2-0.1c-0.1,0.2-0.2,0.5-0.2,0.7c-0.8,19.4-1.5,38.8-2.3,58.2
	c-0.1,2.1,0.8,2.9,2.9,2.9c2.4,0,2.4-1.5,2.3-3.3c-0.5-13.3-1-26.6-1.3-40C105.8,40.4,106,34.2,106,28.1L106,28.1z"/>
<path class="st0" d="M88.1,60.4c0,18.2,0.1,36.5,0,54.7c0,11.2-7.8,16.7-18.6,13.2c-5.1-1.7-7.7-4.9-7.8-10.6
	c-0.2-11.2,0-22.5-0.1-33.7c0-2,0.7-2.8,2.8-2.9c7.8-0.4,7.8-0.4,7.8,7.2c0,8.5,0,17,0,25.5c0,1,0,2,0.1,3c0.1,1.6,0.7,3.1,2.6,3
	c1.7-0.1,2.2-1.4,2.2-2.9c0-0.9,0-1.8,0-2.6c0-36.4,0-72.7,0-109.1c0-5,0-5,5.1-5c1,0.1,2,0.1,3,0c2.4-0.3,3,0.8,3,3
	c-0.1,9.4,0,18.7,0,28.1L88.1,60.4z"/>
<path class="st0" d="M122.4,63.8c0-20,0.1-40-0.1-60c0-2.9,0.6-3.9,3.7-3.8c5,0.3,10,0.2,15,0c2.5-0.1,3.2,0.7,3.1,3.1
	c-0.2,7.1,0.9,6.2-6.1,6.3c-4.9,0.1-4.9,0-4.9,5c0,12.9,0.1,25.7-0.1,38.6c0,3.5,0.8,5.3,4.6,4.7c0.1,0,0.3,0,0.4,0
	c5.2,0,7.2,2.9,5.4,7.8c-0.6,1.8-2.1,1.4-3.4,1.4c-6.9,0.2-6.9,0.2-6.9,7.1c0,13.5,0.1,27-0.1,40.5c0,3.3,0.9,4.7,4.3,4.2
	c0.2,0,0.5,0,0.8,0c5.8,0,7.6,2.5,6.1,8.2c-0.3,1.2-1,1.2-1.9,1.2c-5.9,0-11.8-0.1-17.6,0c-2.4,0.1-2.2-1.4-2.2-2.9c0-10,0-20,0-30
	L122.4,63.8z"/>
<path class="st0" d="M147.9,64.1c0-20.1,0.1-40.2-0.1-60.4c0-3,0.9-3.8,3.8-3.7c5,0.2,10,0.2,15,0c2.6-0.1,3.4,0.8,3,3.2
	c0,0.1,0,0.2,0,0.4c-0.1,6.5,0.9,5.8-5.7,5.9c-5.2,0-5.2,0-5.2,5.4c0,12.9,0.1,25.8-0.1,38.6c0,3.2,1,4.7,4.3,4.2c0.2,0,0.5,0,0.8,0
	c1.8,0.3,4.4-1,5.1,0.8c0.8,2.1,0.4,4.7,0.1,7c-0.2,1.7-1.9,1.3-3,1.3c-7.2,0.3-7.2,0.3-7.2,7.6c0,13.1,0.1,26.2-0.1,39.4
	c-0.1,3.6,0.8,5.6,4.8,4.8c0.1,0,0.2,0,0.4,0c5.6,0,7.7,3,5.9,8.3c-0.4,1.2-1.2,1.1-2,1.1c-5.9,0-11.8-0.1-17.6,0
	c-2.8,0-2.1-1.9-2.1-3.4c0-15.7,0-31.5,0-47.2L147.9,64.1z"/>
</svg>
