<svg xmlns="http://www.w3.org/2000/svg" viewBox="0 0 178.5 136.48"><rect x="-1.81" y="-3.56" width="184.75" height="145.19"/><path d="M7.36,68.36c0-20,.06-40-.05-60,0-2.8.51-4,3.63-3.77,3.47.31,7,0,10.49.08,7.64.08,11.93,3.9,12.37,11.56C34.14,22.1,34,28,34,33.86q0,10.5,0,21c0,4-.79,7.76-4.32,10.26-1.51,1.07-.9,1.7.18,2.51C33,70,34,73.39,34,77.19c0,17.37,0,34.74,0,52.12,0,2.48-.52,3.56-3.3,3.46-9-.32-7.57,1.27-7.62-7.41-.09-15.62,0-31.24,0-46.86a25,25,0,0,0,0-3c-.25-2-1.09-3.86-3.4-3.67s-1.53,2.26-1.54,3.61c0,17.74-.11,35.49.06,53.23,0,3.24-.65,4.31-4.08,4.14-6.68-.31-6.69-.09-6.69-6.71Zm10.69-30q0,10.47,0,21c0,1.12-.1,2.4,1.37,2.69a2.62,2.62,0,0,0,2.73-1.58,6.9,6.9,0,0,0,.86-3.2q.07-19.81,0-39.64c0-2-.78-3.52-3-3.45-2.53.08-2,2.17-2,3.66C18,24.68,18,31.53,18.05,38.39Z" fill="#fff"/><path d="M64.9,117.63q.33,6.16.65,12.34c0,.61.28,1.56,0,1.77-2.76,2.06-5.95.62-8.95.93-2.1.23-1.8-1.6-1.84-2.92-.25-7.49-.49-15-.68-22.46,0-2,.13-3.61-2.79-3.69s-3.17,1.6-3.24,3.75c-.23,7.48-.56,15-.69,22.45,0,2.2-.61,3-3,3-9.18-.26-7.52,1.25-7.06-7.78.7-13.84,1.23-27.68,1.92-41.52C40.49,58.29,41.84,33.13,43.05,8c.11-2.47.71-3.53,3.4-3.33a85.25,85.25,0,0,0,10.11,0c2.08-.09,2.79.57,2.88,2.7q1,22.82,2.19,45.61Q63.28,85.28,65,117.62ZM52.51,32.46H51.19c-.77,1.26-.39,2.66-.45,4Q50.33,45.8,50,55.15q-.72,18.33-1.45,36.66c-.08,2,1,2.61,2.78,2.59,2,0,2.43-1,2.35-2.87-.46-10.48-.9-21-1.1-31.44C52.37,50.89,52.51,41.67,52.51,32.46Z" fill="#fff"/><path d="M111.13,4.67c7.6,0,7.61,0,8,7.36,1.09,22.3,2.14,44.61,3.27,66.91.86,16.82,1.76,33.64,2.81,50.45.17,2.77-.65,3.39-3.26,3.38-7.21-.05-7.32.07-7.71-7-.33-6.1-.42-12.22-.52-18.34,0-2.16,0-3.78-3.07-3.83-3.27,0-2.91,2.07-3,3.94-.32,7.1-.69,14.21-.72,21.32,0,3.08-.9,4.06-4,3.94-6.56-.23-6.49,0-6.18-6.24,1.1-21.81,2.12-43.62,3.21-65.43.89-17.81,1.9-35.62,2.72-53.44.11-2.48.91-3.29,3.3-3A50.85,50.85,0,0,0,111.13,4.67Zm.63,28-1.25-.06a2.8,2.8,0,0,0-.23.71Q109.13,62.4,108,91.53c-.08,2.14.83,2.89,2.86,2.87,2.39,0,2.37-1.49,2.3-3.29-.49-13.32-1-26.65-1.33-40C111.63,45,111.76,38.8,111.76,32.63Z" fill="#fff"/><path d="M93.85,65c0,18.24.05,36.48,0,54.73,0,11.25-7.83,16.72-18.58,13.18-5.11-1.68-7.72-4.93-7.8-10.63-.16-11.25,0-22.49-.08-33.74,0-2,.66-2.82,2.8-2.92,7.77-.36,7.76-.44,7.76,7.24q0,12.75,0,25.49c0,1,0,2,.06,3,.13,1.61.65,3.11,2.59,3,1.65-.09,2.21-1.41,2.25-2.93,0-.87,0-1.75,0-2.62q0-54.55,0-109.09c0-5,0-5,5.09-5a22.93,22.93,0,0,0,3,0c2.39-.31,3,.78,3,3-.09,9.37,0,18.74,0,28.12Z" fill="#fff"/><path d="M128.15,68.35c0-20,.06-40-.05-60,0-2.86.62-3.94,3.7-3.77,5,.28,10,.21,15,0,2.49-.1,3.22.67,3.13,3.13-.25,7.11.87,6.22-6.12,6.29-4.89.05-4.91,0-4.91,5,0,12.87.1,25.74-.06,38.61,0,3.47.81,5.3,4.57,4.65a2.41,2.41,0,0,1,.38,0c5.23,0,7.19,2.86,5.44,7.82-.65,1.85-2.15,1.38-3.43,1.41-6.89.2-6.9.18-6.9,7.12,0,13.5.09,27-.07,40.49,0,3.26.94,4.7,4.26,4.19a4.68,4.68,0,0,1,.75,0c5.8,0,7.62,2.52,6.06,8.2-.32,1.19-1,1.22-1.92,1.22-5.88,0-11.75-.09-17.62,0-2.41.05-2.18-1.42-2.18-2.93q0-15,0-30Z" fill="#fff"/><path d="M153.69,68.64c0-20.12.07-40.24-.07-60.36,0-3,.86-3.81,3.77-3.67,5,.24,10,.21,15,0,2.58-.1,3.38.85,3,3.2,0,.13,0,.25,0,.38-.07,6.48.86,5.81-5.74,5.85-5.24,0-5.25,0-5.25,5.42,0,12.87.08,25.75-.06,38.62,0,3.25,1,4.71,4.28,4.21a2.36,2.36,0,0,1,.75,0c1.76.32,4.4-1,5.12.85.8,2.06.37,4.68.13,7-.19,1.71-1.86,1.29-3,1.34-7.18.29-7.18.28-7.18,7.59,0,13.12.11,26.24-.08,39.36-.05,3.63.79,5.55,4.75,4.83a2.29,2.29,0,0,1,.37,0c5.6,0,7.69,3,5.94,8.28-.39,1.18-1.16,1.13-2,1.13-5.88,0-11.75-.06-17.62,0-2.84,0-2.05-1.95-2.06-3.38,0-15.74,0-31.49,0-47.24Z" fill="#fff"/></svg>